<?xml version="1.0" encoding="utf-8"?>
<!-- Generator: Adobe Illustrator 19.2.1, SVG Export Plug-In . SVG Version: 6.00 Build 0)  -->
<!DOCTYPE svg PUBLIC "-//W3C//DTD SVG 1.1//EN" "http://www.w3.org/Graphics/SVG/1.1/DTD/svg11.dtd">
<svg version="1.1" id="Layer_1" xmlns="http://www.w3.org/2000/svg" xmlns:xlink="http://www.w3.org/1999/xlink" x="0px" y="0px"
	 viewBox="0 0 376.4 30.3" style="enable-background:new 0 0 376.4 30.3;" xml:space="preserve">
<style type="text/css">
	.st0{fill:#EB2030;}
</style>
<g>
	<g>
		<path class="st0" d="M11.5,20.1c-0.2,0-0.4,0.1-0.5,0.2c-0.1,0.1-0.2,0.3-0.4,0.6l-5.1,9.1L0,29l7.2-12.3L1,4.4l5.9-1.2l4,8.7
			c0.2,0.3,0.3,0.6,0.5,0.7c0.1,0.1,0.3,0.2,0.5,0.2c0.2,0,0.4-0.1,0.5-0.2c0.1-0.1,0.3-0.3,0.4-0.6l4.8-8.7L23,4.3l-6.6,12
			l6.7,12.5l-6,1.2l-4.5-9c-0.2-0.4-0.3-0.6-0.4-0.7C11.9,20.2,11.8,20.1,11.5,20.1z"/>
		<path class="st0" d="M31.7,29.6H26v-26h8.8c1.3,0,2.5,0.1,3.6,0.4c1.1,0.3,2.1,0.7,2.9,1.2s1.5,1.3,1.9,2.3s0.7,2.1,0.7,3.5
			c0,1.8-0.4,3.3-1.3,4.4c-0.9,1.1-2,2-3.3,2.6c0.4,0.3,0.8,0.8,1.2,1.4l5.6,9.9L40,30.1l-4.9-8.9c-0.3-0.6-0.7-1-1-1.3
			c-0.4-0.3-1-0.5-1.8-0.5h-0.5V29.6z M33.9,15.1c1.3,0,2.3-0.3,2.9-1s0.8-1.5,0.8-2.7c0-1.2-0.3-2.2-0.9-2.8
			c-0.6-0.6-1.6-0.9-2.9-0.9h-2v7.3H33.9z"/>
		<path class="st0" d="M47.3,20.4c0-1.5,0.2-2.9,0.6-4.1s0.9-2.3,1.7-3.1c0.7-0.9,1.7-1.5,2.8-2c1.1-0.5,2.4-0.7,3.9-0.7
			c3,0,5.2,0.8,6.6,2.5c1.4,1.7,2.1,4.1,2.1,7.2c0,1.5-0.2,2.9-0.5,4.1c-0.4,1.2-0.9,2.3-1.7,3.1s-1.7,1.5-2.8,2
			c-1.1,0.5-2.4,0.7-4,0.7c-1.6,0-3-0.2-4-0.7c-1.1-0.5-2-1.1-2.7-2c-0.7-0.9-1.2-1.9-1.5-3.1S47.3,21.9,47.3,20.4z M56.1,26.2
			c1.1,0,1.9-0.4,2.4-1.3c0.5-0.9,0.8-2.4,0.8-4.5c0-2.1-0.2-3.6-0.7-4.5s-1.3-1.4-2.4-1.4c-1.1,0-2,0.5-2.6,1.4
			c-0.6,0.9-0.9,2.4-0.9,4.6c0,2,0.3,3.5,0.8,4.4C54.1,25.8,55,26.2,56.1,26.2z"/>
		<path class="st0" d="M73.2,30.2c-1.8,0-3.2-0.5-4.1-1.5c-1-1-1.5-2.5-1.5-4.3c0-2.2,0.7-3.8,2-4.7c1.3-0.9,3.3-1.4,6-1.4h2.3v-0.7
			c0-1-0.2-1.7-0.6-2.3c-0.4-0.5-1.1-0.8-2.2-0.8c-1.1,0-2,0.1-2.9,0.3c-0.9,0.2-1.7,0.5-2.4,0.8l-1.4-3.5c1-0.5,2.2-0.9,3.5-1.1
			c1.4-0.3,2.6-0.4,3.8-0.4c1.4,0,2.5,0.1,3.4,0.4c0.9,0.3,1.7,0.7,2.2,1.4s1,1.4,1.2,2.4c0.2,1,0.4,2.2,0.4,3.6v7.3l1.2,2.5
			L80,30.2l-1.6-2.4c-0.9,0.8-1.8,1.4-2.6,1.8C75,30,74.2,30.2,73.2,30.2z M75.1,26.2c0.5,0,1-0.1,1.5-0.4c0.6-0.3,1-0.6,1.3-0.9
			v-3.6h-2.3c-0.9,0-1.6,0.2-2.1,0.5c-0.5,0.3-0.8,1-0.8,2c0,0.9,0.2,1.5,0.6,1.9C73.7,26.1,74.3,26.2,75.1,26.2z"/>
		<path class="st0" d="M98.3,3.1h5.5V26l1,2.3l-4.3,2l-1.7-2.4c-0.8,0.7-1.6,1.3-2.5,1.7c-0.9,0.4-1.8,0.6-2.9,0.6
			c-2.4,0-4.2-0.9-5.3-2.6s-1.7-4.2-1.7-7.3c0-1.5,0.2-2.8,0.6-4c0.4-1.2,1-2.2,1.7-3.1c0.8-0.9,1.7-1.5,2.8-2
			c1.1-0.5,2.4-0.7,3.8-0.7c0.5,0,1,0,1.5,0.1c0.5,0.1,1,0.2,1.5,0.4V3.1z M96,14.5c-1.3,0-2.3,0.4-3,1.3c-0.7,0.9-1,2.4-1,4.5
			c0,2.2,0.3,3.7,0.8,4.6c0.6,0.9,1.3,1.3,2.3,1.3c0.7,0,1.4-0.2,1.9-0.6s1-0.9,1.3-1.3V15c-0.4-0.2-0.8-0.3-1.1-0.4
			C96.8,14.5,96.4,14.5,96,14.5z"/>
		<path class="st0" d="M116.5,23.9c1.3,0.7,2.5,1.3,3.6,1.5c1.1,0.3,2.2,0.4,3.2,0.4c1.6,0,2.7-0.3,3.4-0.9c0.7-0.6,1-1.4,1-2.4
			c0-0.5-0.1-0.9-0.2-1.3c-0.1-0.4-0.4-0.7-0.7-1c-0.4-0.3-0.9-0.5-1.5-0.8c-0.6-0.2-1.5-0.5-2.5-0.7c-1.1-0.3-2.2-0.6-3.1-1
			c-0.9-0.4-1.7-0.9-2.4-1.4c-0.7-0.6-1.2-1.3-1.6-2.2c-0.4-0.9-0.6-1.9-0.6-3.2c0-2.5,0.8-4.5,2.5-5.9s4.1-2.2,7.2-2.2
			c1.6,0,3.1,0.2,4.4,0.5c1.3,0.3,2.6,0.9,3.9,1.6L131,9c-0.2-0.1-0.6-0.3-1-0.5c-0.4-0.2-0.9-0.4-1.4-0.6c-0.5-0.2-1.1-0.3-1.6-0.4
			c-0.6-0.1-1.2-0.2-1.7-0.2c-1.5,0-2.6,0.3-3.3,0.8c-0.6,0.5-1,1.2-1,2.1c0,0.6,0.1,1,0.3,1.4c0.2,0.4,0.5,0.7,0.9,1
			c0.4,0.3,1,0.6,1.7,0.8c0.7,0.2,1.6,0.5,2.6,0.8c0.8,0.2,1.6,0.5,2.5,0.9c0.8,0.3,1.6,0.8,2.3,1.4c0.7,0.6,1.2,1.3,1.7,2.1
			c0.4,0.9,0.7,1.9,0.7,3.2c0,2.8-0.9,4.9-2.6,6.4s-4.2,2.2-7.5,2.2c-2,0-3.7-0.2-5.2-0.6c-1.5-0.4-2.8-1-3.9-1.8L116.5,23.9z"/>
		<path class="st0" d="M138,23.9c1.3,0.7,2.5,1.3,3.6,1.5c1.1,0.3,2.2,0.4,3.2,0.4c1.6,0,2.7-0.3,3.4-0.9c0.7-0.6,1-1.4,1-2.4
			c0-0.5-0.1-0.9-0.2-1.3c-0.1-0.4-0.4-0.7-0.7-1c-0.4-0.3-0.9-0.5-1.5-0.8c-0.6-0.2-1.5-0.5-2.5-0.7c-1.1-0.3-2.2-0.6-3.1-1
			c-0.9-0.4-1.7-0.9-2.4-1.4c-0.7-0.6-1.2-1.3-1.6-2.2c-0.4-0.9-0.6-1.9-0.6-3.2c0-2.5,0.8-4.5,2.5-5.9s4.1-2.2,7.2-2.2
			c1.6,0,3.1,0.2,4.4,0.5c1.3,0.3,2.6,0.9,3.9,1.6L152.5,9c-0.2-0.1-0.6-0.3-1-0.5c-0.4-0.2-0.9-0.4-1.4-0.6
			c-0.5-0.2-1.1-0.3-1.6-0.4c-0.6-0.1-1.2-0.2-1.7-0.2c-1.5,0-2.6,0.3-3.3,0.8c-0.6,0.5-1,1.2-1,2.1c0,0.6,0.1,1,0.3,1.4
			c0.2,0.4,0.5,0.7,0.9,1c0.4,0.3,1,0.6,1.7,0.8c0.7,0.2,1.6,0.5,2.6,0.8c0.8,0.2,1.6,0.5,2.5,0.9c0.8,0.3,1.6,0.8,2.3,1.4
			c0.7,0.6,1.2,1.3,1.7,2.1c0.4,0.9,0.7,1.9,0.7,3.2c0,2.8-0.9,4.9-2.6,6.4s-4.2,2.2-7.5,2.2c-2,0-3.7-0.2-5.2-0.6
			c-1.5-0.4-2.8-1-3.9-1.8L138,23.9z"/>
		<path class="st0" d="M165.7,6.7c1.2-0.8,2.5-1.6,4.1-2.2c1.5-0.6,3.2-0.9,5.1-0.9c1.6,0,2.9,0.2,4,0.6c1.1,0.4,1.9,0.9,2.5,1.6
			c0.6,0.7,1,1.4,1.3,2.3c0.3,0.9,0.4,1.8,0.4,2.7c0,1.7-0.5,3.2-1.4,4.6c-0.9,1.4-2.1,2.8-3.7,4.2l-4.8,4.5
			c-0.2,0.2-0.4,0.3-0.5,0.5c-0.1,0.1-0.1,0.2-0.1,0.3c0,0.1,0,0.2,0.1,0.3c0,0.1,0.2,0.1,0.4,0.1h10.4v4.3h-14.1
			c-1.1,0-2-0.2-2.6-0.6c-0.6-0.4-1-1.2-1-2.4c0-0.7,0.2-1.4,0.6-2.1c0.4-0.6,1-1.3,1.8-2.1l6.6-6.2c0.6-0.6,1.1-1.1,1.5-1.6
			c0.4-0.5,0.7-0.9,0.9-1.4c0.2-0.4,0.4-0.8,0.5-1.2s0.1-0.8,0.1-1.2c0-1-0.3-1.7-0.9-2.2c-0.6-0.5-1.4-0.7-2.4-0.7
			c-0.8,0-1.8,0.2-3,0.6c-1.2,0.4-2.3,1-3.3,1.7L165.7,6.7z"/>
		<path class="st0" d="M190.3,30.2c-1.1,0-1.9-0.3-2.4-1s-0.8-1.4-0.8-2.4s0.3-1.8,0.8-2.5c0.5-0.7,1.3-1,2.4-1c1.1,0,1.9,0.3,2.5,1
			c0.5,0.7,0.8,1.5,0.8,2.5s-0.3,1.8-0.8,2.4S191.4,30.2,190.3,30.2z"/>
		<path class="st0" d="M201.1,16.6c-0.9-0.5-1.7-1.2-2.3-2.1c-0.7-0.9-1-2.1-1-3.6c0-1.1,0.2-2,0.6-2.9s0.9-1.7,1.7-2.3
			c0.7-0.6,1.6-1.2,2.7-1.5c1.1-0.4,2.3-0.6,3.8-0.6c2.6,0,4.7,0.6,6,1.8c1.4,1.2,2.1,2.8,2.1,4.9c0,1.2-0.3,2.4-1,3.4
			c-0.7,1-1.5,1.8-2.6,2.4c1.4,0.7,2.4,1.5,3.2,2.4c0.7,1,1.1,2.3,1.1,3.9c0,1.3-0.3,2.5-0.8,3.4c-0.5,1-1.2,1.8-2.1,2.4
			c-0.9,0.6-1.9,1.1-3,1.4S207.2,30,206,30c-1.8,0-3.2-0.2-4.4-0.6c-1.2-0.4-2.1-0.9-2.8-1.6c-0.7-0.6-1.2-1.4-1.5-2.2
			s-0.4-1.7-0.4-2.5c0-0.8,0.1-1.5,0.3-2.1c0.2-0.7,0.5-1.3,0.9-1.8s0.8-1,1.4-1.4C200,17.3,200.5,16.9,201.1,16.6z M204.3,18.4
			c-0.6,0.6-1.2,1.2-1.5,1.9c-0.4,0.7-0.5,1.5-0.5,2.6c0,0.6,0.1,1.2,0.3,1.6c0.2,0.4,0.5,0.8,0.9,1.1c0.4,0.3,0.8,0.5,1.2,0.6
			s1,0.2,1.5,0.2c0.4,0,0.9-0.1,1.3-0.2s0.8-0.3,1.1-0.6c0.3-0.3,0.6-0.7,0.8-1.2c0.2-0.5,0.3-1.1,0.3-1.8c0-0.9-0.2-1.6-0.7-2.2
			c-0.5-0.6-1.3-1-2.4-1.3L204.3,18.4z M207.6,14.6c0.6-0.5,1.1-1.1,1.4-1.9c0.3-0.8,0.5-1.6,0.5-2.4c0-0.9-0.3-1.6-0.8-2.2
			c-0.5-0.6-1.4-0.9-2.5-0.9c-0.6,0-1.2,0.1-1.6,0.3c-0.4,0.2-0.8,0.5-1,0.8c-0.3,0.3-0.4,0.7-0.5,1.1s-0.1,0.8-0.1,1.1
			c0,0.3,0,0.6,0.1,1c0.1,0.3,0.2,0.7,0.5,1c0.2,0.3,0.5,0.6,0.9,0.9c0.4,0.3,0.9,0.5,1.5,0.7L207.6,14.6z"/>
		<path class="st0" d="M226.5,29.6v-26h9.8c3.9,0,6.7,1.1,8.5,3.2c1.8,2.1,2.7,5.5,2.7,10c0,4.4-0.9,7.6-2.8,9.7s-4.8,3.1-8.7,3.1
			H226.5z M235.8,25.2c1,0,1.8-0.1,2.5-0.4s1.3-0.7,1.8-1.4c0.5-0.6,0.8-1.5,1.1-2.6c0.2-1.1,0.4-2.5,0.4-4.2c0-1.6-0.1-3-0.3-4.1
			c-0.2-1.1-0.6-2-1-2.7c-0.5-0.7-1-1.2-1.7-1.5c-0.7-0.3-1.5-0.5-2.5-0.5h-3.6v17.2H235.8z"/>
		<path class="st0" d="M257.6,29.6h-5.5V14.8h-2.3v-3.7h7.8V29.6z M254.6,8.7c-1.1,0-1.9-0.3-2.4-0.9s-0.8-1.4-0.8-2.4
			s0.3-1.8,0.8-2.4s1.3-1,2.4-1s1.9,0.3,2.4,1s0.8,1.5,0.8,2.4s-0.3,1.8-0.8,2.4S255.6,8.7,254.6,8.7z"/>
		<path class="st0" d="M270.9,26.2c1,0,1.9-0.1,2.7-0.2c0.8-0.2,1.6-0.4,2.4-0.8l1.6,3.4c-1.1,0.6-2.3,1.1-3.5,1.3
			c-1.2,0.2-2.5,0.3-3.9,0.3c-3.1,0-5.4-0.8-6.8-2.5c-1.4-1.7-2-4.1-2-7.3c0-1.5,0.2-2.8,0.6-4c0.4-1.2,0.9-2.3,1.6-3.1
			c0.7-0.9,1.6-1.6,2.7-2c1.1-0.5,2.4-0.7,3.8-0.7c1.4,0,2.6,0.2,3.6,0.7c1,0.5,1.8,1.1,2.5,2c0.6,0.9,1.1,1.9,1.4,3.2
			c0.3,1.2,0.5,2.7,0.5,4.2l-1.4,1.5h-9.7c0.2,1.5,0.6,2.6,1.3,3.2S269.7,26.2,270.9,26.2z M272.8,18.5c0-2.7-0.9-4.1-2.8-4.1
			c-1,0-1.7,0.3-2.2,0.8c-0.5,0.6-0.9,1.6-1,3.2H272.8z M269.5,8.7L267,6.9l4.3-6.9l3.7,2.7L269.5,8.7z"/>
		<path class="st0" d="M293.5,15.4c-0.7-0.4-1.5-0.7-2.3-0.9c-0.8-0.2-1.6-0.4-2.4-0.4c-1,0-1.7,0.2-2.1,0.5
			c-0.4,0.3-0.6,0.7-0.6,1.2c0,0.4,0.1,0.7,0.3,0.9c0.2,0.2,0.4,0.4,0.8,0.6c0.3,0.2,0.7,0.3,1.1,0.5c0.4,0.1,0.9,0.3,1.3,0.4
			c0.6,0.2,1.3,0.4,2,0.7c0.7,0.3,1.3,0.6,1.9,1c0.6,0.4,1,0.9,1.4,1.6c0.3,0.6,0.5,1.4,0.5,2.3c0,0.9-0.1,1.8-0.4,2.5
			c-0.3,0.8-0.7,1.5-1.3,2c-0.6,0.6-1.4,1-2.4,1.3s-2.2,0.5-3.7,0.5s-2.9-0.2-4.2-0.5c-1.3-0.3-2.4-0.8-3.3-1.3l1.7-3.4
			c0.8,0.4,1.6,0.8,2.6,1.1c0.9,0.3,2,0.5,3.1,0.5c0.8,0,1.5-0.1,2-0.3s0.8-0.7,0.8-1.4c0-0.4-0.1-0.7-0.3-0.9
			c-0.2-0.2-0.5-0.4-0.8-0.6c-0.3-0.2-0.8-0.3-1.3-0.4c-0.5-0.1-1.1-0.3-1.7-0.5c-0.6-0.2-1.2-0.4-1.9-0.6c-0.6-0.2-1.2-0.6-1.7-1
			c-0.5-0.4-0.9-0.9-1.2-1.6c-0.3-0.6-0.5-1.4-0.5-2.4c0-2,0.7-3.6,2.1-4.6c1.4-1.1,3.3-1.6,5.6-1.6c1.1,0,2.2,0.1,3.4,0.4
			c1.1,0.3,2.1,0.7,2.9,1.1L293.5,15.4z"/>
		<path class="st0" d="M307.8,26.2c1,0,1.9-0.1,2.7-0.2c0.8-0.2,1.6-0.4,2.4-0.8l1.6,3.4c-1.1,0.6-2.3,1.1-3.5,1.3
			c-1.2,0.2-2.5,0.3-3.9,0.3c-3.1,0-5.4-0.8-6.8-2.5c-1.4-1.7-2-4.1-2-7.3c0-1.5,0.2-2.8,0.6-4c0.4-1.2,0.9-2.3,1.6-3.1
			c0.7-0.9,1.6-1.6,2.7-2c1.1-0.5,2.4-0.7,3.8-0.7c1.4,0,2.6,0.2,3.6,0.7c1,0.5,1.8,1.1,2.5,2c0.6,0.9,1.1,1.9,1.4,3.2
			c0.3,1.2,0.5,2.7,0.5,4.2l-1.4,1.5h-9.7c0.2,1.5,0.6,2.6,1.3,3.2S306.7,26.2,307.8,26.2z M309.8,18.5c0-2.7-0.9-4.1-2.8-4.1
			c-1,0-1.7,0.3-2.2,0.8c-0.5,0.6-0.9,1.6-1,3.2H309.8z"/>
		<path class="st0" d="M324.2,29.6h-5.5V6.7h-2.3V3.1h7.8V29.6z"/>
		<path class="st0" d="M346.2,3.2c1,0,1.8,0.1,2.5,0.3c0.7,0.2,1.3,0.5,1.8,1c0.5,0.5,0.9,1.1,1.3,1.8s0.7,1.7,1,2.8l5.2,20.4
			l-5.8,0.6l-1.9-7.5h-8.4l-2,7.5l-5.5-0.8L340,9.2c0.3-0.9,0.6-1.7,0.9-2.5c0.3-0.7,0.7-1.4,1.2-1.9c0.5-0.5,1.1-0.9,1.7-1.2
			S345.3,3.2,346.2,3.2z M343,17.9h6.1l-1.9-8.2c-0.1-0.5-0.2-0.8-0.4-1.1c-0.1-0.2-0.3-0.4-0.6-0.4c-0.3,0-0.6,0.1-0.7,0.3
			c-0.2,0.2-0.3,0.6-0.4,1.1L343,17.9z"/>
		<path class="st0" d="M376.4,8.1h-7v21.5h-5.8V8.1h-7V3.6h19.8V8.1z"/>
	</g>
</g>
</svg>
